<svg xmlns="http://www.w3.org/2000/svg" width="449.15" height="135.45" viewBox="0 0 449.15 135.45"><title>logo-01</title><path d="M0,0V86.08L91.13,44.32,49.37,135.45h86.08V0ZM80.73,122.46,122.46,13,13,54.72V13H122.46V122.46Z" fill="#08152d"/><path d="M9.14,95.23l31.08,31.08,26.3-57.38Zm26.33,6.49-7.69,7.69L26,107.67,33.73,100Zm12-12-7.69,7.69L38,95.69,45.71,88Zm4.29-4.29L50,83.71,57.69,76l1.73,1.74Z" fill="#2a5ba9"/><path d="M193.82,102.26q-12.6,0-20.16-5.63t-8.82-15.88h13.32a11.21,11.21,0,0,0,5,8.24q4.41,3,11.25,3,5.58,0,8.6-2a6.07,6.07,0,0,0,3-5.31,7.15,7.15,0,0,0-1.8-5.08q-1.8-1.93-6.21-3.11L186,73.19q-9.27-2.61-13.54-7.15a15.94,15.94,0,0,1-4.28-11.39,17,17,0,0,1,3-10.12,19.1,19.1,0,0,1,8.5-6.57,33,33,0,0,1,12.87-2.3q11.34,0,18.09,5.36a19.93,19.93,0,0,1,7.65,14.17H205a10.18,10.18,0,0,0-4.36-7,16,16,0,0,0-8.87-2.25,13.63,13.63,0,0,0-7.47,1.8,5.53,5.53,0,0,0-2.79,4.86A6.75,6.75,0,0,0,183,56.86q1.53,1.94,6.39,3.28l12.06,3.33q9.54,2.61,13.73,7.16a16.27,16.27,0,0,1,4.18,11.47q0,9.72-6.75,14.94T193.82,102.26Z" fill="#00112e"/><path d="M225,101.45V36.65h13.5v64.8Zm32,0V73q0-3.78-1.94-5.67a7.72,7.72,0,0,0-5.62-1.89,11,11,0,0,0-5.63,1.44,10.23,10.23,0,0,0-3.87,4,12.07,12.07,0,0,0-1.39,5.94l-1.17-11.07a18.94,18.94,0,0,1,6.61-8,18.49,18.49,0,0,1,10.76-3q7.65,0,11.7,4.27t4.05,11.48v31.05Z" fill="#00112e"/><path d="M277.88,49.43V34.85h14.4V49.43Zm.45,52V55.55h13.5v45.9Z" fill="#00112e"/><path d="M328.82,102.35q-6.57,0-10.53-3.06a12.2,12.2,0,0,1-4.68-8.37l.72-.09V119.9h-13.5V55.55h13.23V65.72l-.81-.18a12,12,0,0,1,5.4-8,19.6,19.6,0,0,1,28.66,8.23,29.36,29.36,0,0,1,2.48,12.51A28.87,28.87,0,0,1,347.18,91a19.9,19.9,0,0,1-7.29,8.37A20.22,20.22,0,0,1,328.82,102.35ZM325,91.55a9.77,9.77,0,0,0,7.74-3.42q3-3.42,3-9.72t-3-9.63a10.11,10.11,0,0,0-7.87-3.33,9.87,9.87,0,0,0-7.7,3.38q-3,3.38-3,9.67t3,9.67A10.07,10.07,0,0,0,325,91.55Z" fill="#00112e"/><path d="M378.05,102.35a27.86,27.86,0,0,1-13.32-3A21.51,21.51,0,0,1,356,90.92a24.47,24.47,0,0,1-3.1-12.42A24.38,24.38,0,0,1,356,66a21.82,21.82,0,0,1,8.69-8.37,26.85,26.85,0,0,1,13-3,25.14,25.14,0,0,1,12.33,2.88,20.4,20.4,0,0,1,8.1,8,24.24,24.24,0,0,1,2.88,12.06c0,1,0,1.85-.09,2.65s-.15,1.58-.27,2.3H360.77V73.64h28.89l-2.34,1.62q0-5.58-2.66-8.23a9.78,9.78,0,0,0-7.24-2.66,10,10,0,0,0-8.24,3.6q-2.93,3.6-2.92,10.8,0,7,2.92,10.44T378,92.63a13.23,13.23,0,0,0,5.58-1.08A7.14,7.14,0,0,0,387.05,88h12.69A20.43,20.43,0,0,1,392,98.53Q386.6,102.35,378.05,102.35Z" fill="#00112e"/><path d="M426.74,83.09l-13.05,18.36H399l21.33-27.81ZM434,101.45,420.44,81.29,400.91,55.55H416l12.15,18.09,21,27.81ZM421.52,72.92l12.15-17.37h14.76L427.91,82.37Z" fill="#00112e"/></svg>